<svg translationFields="" width="32px" height="40px" viewBox="0 0 32 40" xmlns="http://www.w3.org/2000/svg"><g fill="white"><mask id="path-1-inside-1_703_731"><path fill-rule="evenodd" clip-rule="evenodd" d="M4 4H28V36H4V4ZM0 4C0 1.79086 1.79086 0 4 0H28C30.2091 0 32 1.79086 32 4V36C32 38.2091 30.2091 40 28 40H4C1.79086 40 0 38.2091 0 36V4ZM20 30C20 32.2091 18.2091 34 16 34C13.7909 34 12 32.2091 12 30C12 27.7909 13.7909 26 16 26C18.2091 26 20 27.7909 20 30Z"></path></mask><path fill-rule="evenodd" clip-rule="evenodd" d="M4 4H28V36H4V4ZM0 4C0 1.79086 1.79086 0 4 0H28C30.2091 0 32 1.79086 32 4V36C32 38.2091 30.2091 40 28 40H4C1.79086 40 0 38.2091 0 36V4ZM20 30C20 32.2091 18.2091 34 16 34C13.7909 34 12 32.2091 12 30C12 27.7909 13.7909 26 16 26C18.2091 26 20 27.7909 20 30Z"></path><path d="M28 4H29V3H28V4ZM4 4V3H3V4H4ZM28 36V37H29V36H28ZM4 36H3V37H4V36ZM28 3H4V5H28V3ZM29 36V4H27V36H29ZM4 37H28V35H4V37ZM3 4V36H5V4H3ZM4 -1C1.23858 -1 -1 1.23858 -1 4H1C1 2.34315 2.34315 1 4 1V-1ZM28 -1H4V1H28V-1ZM33 4C33 1.23858 30.7614 -1 28 -1V1C29.6569 1 31 2.34315 31 4H33ZM33 36V4H31V36H33ZM28 41C30.7614 41 33 38.7614 33 36H31C31 37.6569 29.6569 39 28 39V41ZM4 41H28V39H4V41ZM-1 36C-1 38.7614 1.23858 41 4 41V39C2.34315 39 1 37.6569 1 36H-1ZM-1 4V36H1V4H-1ZM16 35C18.7614 35 21 32.7614 21 30H19C19 31.6569 17.6569 33 16 33V35ZM11 30C11 32.7614 13.2386 35 16 35V33C14.3431 33 13 31.6569 13 30H11ZM16 25C13.2386 25 11 27.2386 11 30H13C13 28.3431 14.3431 27 16 27V25ZM21 30C21 27.2386 18.7614 25 16 25V27C17.6569 27 19 28.3431 19 30H21Z" mask="url(#path-1-inside-1_703_731)"></path></g></svg>