<svg xmlns="http://www.w3.org/2000/svg" width="24px" height="24px" viewBox="0 0 24 24" fill="white"><path fill-rule="evenodd" clip-rule="evenodd" d="M1 5C1 3.89543 1.89543 3 3 3H18C19.1046 3 20 3.89543 20 5V16C20 17.1046 19.1046 18 18 18H3C1.89543 18 1 17.1046 1 16V5ZM7.9303 8.4205C7.9278 7.87094 8.59052 7.52756 9.11732 7.80545L13.0407 9.87499C13.5587 10.1483 13.5607 10.8217 13.0442 11.0974L9.13974 13.1818C8.61545 13.4617 7.95165 13.1231 7.94916 12.5744L7.9303 8.4205ZM23 17.9412C23 19.6304 21.5251 21 19.7059 21H10.6471C9.73706 21 9 20.3156 9 19.4706H19.7059C20.6159 19.4706 21.3529 18.7862 21.3529 17.9412V8C22.2629 8 23 8.68441 23 9.52941V17.9412Z" fill="white"></path></svg>